<svg width="96" height="96" xmlns="http://www.w3.org/2000/svg" xmlns:xlink="http://www.w3.org/1999/xlink" xml:space="preserve" overflow="hidden"><g transform="translate(-592 -178)"><path d="M658.1 257.4 666.6 248.9 669.4 251.7 660.9 260.2 658.1 257.4ZM655.2 237.6 658 240.4 649.5 248.9 646.7 246.1 655.2 237.6ZM665.9 227 668.7 229.8 660.9 237.6 658.1 234.8 665.9 227ZM663.7 246.1 655.2 254.6 652.4 251.8 660.9 243.3 663.7 246.1ZM663.7 240.4 671.5 232.6 674.3 235.4 666.5 243.2 663.7 240.4ZM672.2 248.9 669.4 246.1 677.2 238.3 680 241.1 672.2 248.9ZM614.9 253.9 619.2 249.6 623.5 253.9 614.9 253.9ZM616.4 246.8 612 251.2 612 242.4 616.4 246.8ZM619.9 219.2 617.1 216.4 625.6 207.9 628.4 210.7 619.9 219.2ZM614.2 196.6 617 199.4 608.5 207.9 605.7 205.1 614.2 196.6ZM627.7 188.8 619.9 196.6 617.1 193.8 624.8 186 627.7 188.8ZM622.7 205.1 614.2 213.6 611.4 210.8 619.9 202.3 622.7 205.1ZM622.7 199.4 630.5 191.6 633.3 194.4 625.5 202.2 622.7 199.4ZM631.2 207.9 628.4 205.1 636.2 197.3 639 200.1 631.2 207.9ZM682.8 238.3 668.7 224.2C667.9 223.4 666.9 223 665.9 223 664.9 223 663.8 223.4 663.1 224.2L655.2 232 652.4 229.2 662.3 219.3C663.1 218.5 663.5 217.5 663.5 216.5 663.5 215.4 663.1 214.4 662.3 213.7L660.7 212 664.4 210 656 201.6 654 205.3 652.4 203.7C651.6 202.9 650.6 202.5 649.6 202.5 648.5 202.5 647.5 202.9 646.8 203.7L636.9 213.6 634 210.8 641.8 203C642.6 202.2 643 201.2 643 200.2 643 199.1 642.6 198.1 641.8 197.4L627.7 183.2C626.9 182.4 625.9 182 624.8 182 623.7 182 622.7 182.4 622 183.2L602.9 202.3C602.2 203 601.8 204 601.8 205.1 601.8 206.2 602.2 207.2 603 207.9L617.1 222C617.9 222.8 618.9 223.2 619.9 223.2 620.9 223.2 622 222.8 622.7 222L631.2 213.5 634 216.3 624.1 226.2C623.3 227 622.9 228 622.9 229 622.9 230.1 623.3 231.1 624.1 231.8L627 234.6 624 237.6C617.3 232.3 609.2 231.1 605 235.4L608 238.3 607.9 253.3C605.9 253.6 604.4 255.4 604.5 257.5 604.6 259.6 606.3 261.2 608.4 261.2 610.5 261.3 612.2 259.7 612.5 257.7L627.5 257.8 630.5 260.8C634.7 256.6 633.6 248.5 628.3 241.8L631.3 238.8 634 241.8C634.8 242.6 635.8 243 636.8 243 637.9 243 638.9 242.6 639.6 241.8L649.5 231.9 652.3 234.7 643.8 243.2C643 244 642.6 245 642.6 246 642.6 247 643 248.1 643.8 248.8L658 262.9C658.8 263.7 659.8 264.1 660.8 264.1 661.9 264.1 662.9 263.7 663.6 262.9L682.8 244C683.6 243.2 684 242.2 684 241.2 684 240.1 683.6 239.1 682.8 238.3Z" fill="#93BFEC"/></g></svg>